<svg width="25" height="25" viewBox="0 0 25 25" fill="none" xmlns="http://www.w3.org/2000/svg">
<g clip-path="url(#clip0_13_1202)">
<path d="M6.25 14.0625C6.25 14.4769 6.08538 14.8743 5.79235 15.1674C5.49933 15.4604 5.1019 15.625 4.6875 15.625C4.2731 15.625 3.87567 15.4604 3.58265 15.1674C3.28962 14.8743 3.125 14.4769 3.125 14.0625C3.125 13.6481 3.28962 13.2507 3.58265 12.9576C3.87567 12.6646 4.2731 12.5 4.6875 12.5C5.1019 12.5 5.49933 12.6646 5.79235 12.9576C6.08538 13.2507 6.25 13.6481 6.25 14.0625ZM21.875 14.0625C21.875 14.4769 21.7104 14.8743 21.4174 15.1674C21.1243 15.4604 20.7269 15.625 20.3125 15.625C19.8981 15.625 19.5007 15.4604 19.2076 15.1674C18.9146 14.8743 18.75 14.4769 18.75 14.0625C18.75 13.6481 18.9146 13.2507 19.2076 12.9576C19.5007 12.6646 19.8981 12.5 20.3125 12.5C20.7269 12.5 21.1243 12.6646 21.4174 12.9576C21.7104 13.2507 21.875 13.6481 21.875 14.0625ZM9.375 12.5C8.9606 12.5 8.56317 12.6646 8.27015 12.9576C7.97712 13.2507 7.8125 13.6481 7.8125 14.0625C7.8125 14.4769 7.97712 14.8743 8.27015 15.1674C8.56317 15.4604 8.9606 15.625 9.375 15.625H15.625C16.0394 15.625 16.4368 15.4604 16.7299 15.1674C17.0229 14.8743 17.1875 14.4769 17.1875 14.0625C17.1875 13.6481 17.0229 13.2507 16.7299 12.9576C16.4368 12.6646 16.0394 12.5 15.625 12.5H9.375ZM7.59688 6.68125L6.10312 9.67188C6.04205 9.7979 6.01526 9.93779 6.02547 10.0775C6.03567 10.2171 6.08249 10.3516 6.16123 10.4675C6.23997 10.5833 6.34784 10.6763 6.47397 10.7371C6.6001 10.798 6.74004 10.8245 6.87969 10.8141C8.30156 10.7 10.5516 10.5484 12.5 10.5484C14.4484 10.5484 16.7 10.7 18.1203 10.8141C18.26 10.8245 18.3999 10.798 18.526 10.7371C18.6522 10.6763 18.76 10.5833 18.8388 10.4675C18.9175 10.3516 18.9643 10.2171 18.9745 10.0775C18.9847 9.93779 18.9579 9.7979 18.8969 9.67188L17.4031 6.68281C17.3384 6.55292 17.2388 6.44362 17.1154 6.36717C16.992 6.29072 16.8498 6.25015 16.7047 6.25H8.29531C8.15035 6.25 8.00824 6.29034 7.88489 6.36651C7.76154 6.44267 7.66182 6.55165 7.59688 6.68125Z" fill="#1C5CFF"/>
<path d="M3.9374 5.49219C4.23881 4.78906 4.74005 4.18992 5.37892 3.7691C6.01778 3.34829 6.76615 3.12432 7.53115 3.125H17.4718C19.0343 3.125 20.4468 4.05625 21.0624 5.49219L22.2999 8.37969C22.4171 8.65313 22.628 8.87813 22.8937 9.01094C23.6749 9.40156 24.2296 10.1281 24.4015 10.9828L24.9249 13.6063C24.977 13.8583 25.0025 14.1135 25.0015 14.3719V15.0172C25.0015 16.2891 24.3921 17.4281 23.439 18.1375V21.0938C23.439 21.301 23.3567 21.4997 23.2101 21.6462C23.0636 21.7927 22.8649 21.875 22.6577 21.875H19.5327C19.3255 21.875 19.1268 21.7927 18.9803 21.6462C18.8338 21.4997 18.7515 21.301 18.7515 21.0938V19.0031C16.7327 19.0781 14.4624 19.1406 12.5015 19.1406C10.5405 19.1406 8.27022 19.0781 6.25146 19.0031V21.0938C6.25146 21.301 6.16916 21.4997 6.02264 21.6462C5.87613 21.7927 5.67742 21.875 5.47021 21.875H2.34521C2.13801 21.875 1.9393 21.7927 1.79279 21.6462C1.64627 21.4997 1.56396 21.301 1.56396 21.0938V18.1375C0.61084 17.4281 0.00146484 16.2891 0.00146484 15.0172V14.3719C0.00172708 14.1148 0.0273723 13.8583 0.0780273 13.6063L0.601465 10.9813C0.77334 10.1281 1.32803 9.4 2.10771 9.01094C2.37516 8.87835 2.58633 8.65444 2.70303 8.37969L3.94053 5.49219H3.9374ZM7.53115 4.6875C7.07224 4.68753 6.62343 4.82228 6.2404 5.07504C5.85737 5.32781 5.55697 5.68745 5.37646 6.10938L4.13896 8.99531C3.8765 9.60946 3.40404 10.1102 2.80615 10.4078C2.63395 10.4932 2.48375 10.6171 2.36722 10.7699C2.2507 10.9228 2.17098 11.1004 2.13428 11.2891L1.60928 13.9125C1.57857 14.0637 1.56287 14.2176 1.5624 14.3719V15.0172C1.5624 16.2609 2.53115 17.2797 3.7624 17.3359C6.19209 17.4453 9.67803 17.5781 12.4999 17.5781C15.3218 17.5781 18.8077 17.4469 21.2374 17.3359C21.8321 17.307 22.3927 17.0498 22.8025 16.6178C23.2123 16.1859 23.4397 15.6126 23.4374 15.0172V14.3719C23.4374 14.2177 23.4218 14.0646 23.3905 13.9125L22.8671 11.2875C22.8302 11.0991 22.7503 10.9218 22.6338 10.7692C22.5173 10.6167 22.3672 10.493 22.1952 10.4078C21.5973 10.1102 21.1249 9.60946 20.8624 8.99531L19.6249 6.10781C19.4441 5.68594 19.1433 5.32645 18.76 5.07396C18.3767 4.82147 17.9277 4.68709 17.4687 4.6875H7.53115Z" fill="#1C5CFF"/>
</g>
<defs>
<clipPath id="clip0_13_1202">
<rect width="25" height="25" fill="white"/>
</clipPath>
</defs>
</svg>
