<svg width="18" height="17" viewBox="0 0 18 17" fill="none" xmlns="http://www.w3.org/2000/svg">
<path d="M4.85952 6.57609C4.26248 6.57609 3.78012 7.11039 3.78012 7.77174C3.78012 8.43308 4.26248 8.96739 4.85952 8.96739C5.45656 8.96739 5.93892 8.43308 5.93892 7.77174C5.93892 7.11039 5.45656 6.57609 4.85952 6.57609ZM8.63741 6.57609C8.04037 6.57609 7.55801 7.11039 7.55801 7.77174C7.55801 8.43308 8.04037 8.96739 8.63741 8.96739C9.23445 8.96739 9.7168 8.43308 9.7168 7.77174C9.7168 7.11039 9.23445 6.57609 8.63741 6.57609ZM12.4153 6.57609C11.8183 6.57609 11.3359 7.11039 11.3359 7.77174C11.3359 8.43308 11.8183 8.96739 12.4153 8.96739C13.0123 8.96739 13.4947 8.43308 13.4947 7.77174C13.4947 7.11039 13.0123 6.57609 12.4153 6.57609ZM8.63741 0C3.86783 0 0.00223867 3.4786 0.00223867 7.77174C0.00223867 9.55027 0.673488 11.1793 1.78662 12.4908C1.28402 13.963 0.238357 15.2109 0.221491 15.2259C-0.00113444 15.4874 -0.0618505 15.8685 0.0663278 16.1973C0.194506 16.5262 0.487967 16.7391 0.811786 16.7391C2.88625 16.7391 4.52221 15.7789 5.50379 15.0092C6.47862 15.3492 7.53103 15.5435 8.63741 15.5435C13.407 15.5435 17.2726 12.0649 17.2726 7.77174C17.2726 3.4786 13.407 0 8.63741 0ZM8.63741 13.75C7.73679 13.75 6.84628 13.5968 5.99289 13.2979L5.22719 13.0289L4.56943 13.5445C4.08708 13.9219 3.42595 14.3441 2.62989 14.6281C2.87613 14.176 3.11562 13.6678 3.30114 13.126L3.65869 12.0761L2.96383 11.2615C2.3533 10.5404 1.62133 9.34851 1.62133 7.77174C1.62133 4.47622 4.76845 1.79348 8.63741 1.79348C12.5064 1.79348 15.6535 4.47622 15.6535 7.77174C15.6535 11.0673 12.5064 13.75 8.63741 13.75Z" fill="white"/>
</svg>
