<svg width="744" height="694" viewBox="0 0 744 694" fill="none" xmlns="http://www.w3.org/2000/svg">
<ellipse cx="472" cy="460" rx="472" ry="460" fill="#3D74FF"/>
<path d="M532.963 852.676C460.038 810.573 406.826 741.225 385.032 659.888C363.238 578.551 374.647 491.888 416.75 418.963C458.853 346.038 528.201 292.826 609.538 271.032C690.875 249.237 777.538 260.647 850.463 302.75L782.572 420.341C740.834 396.244 691.234 389.714 644.681 402.188C598.129 414.661 558.439 445.117 534.341 486.855C510.244 528.592 503.714 578.193 516.188 624.745C528.661 671.297 559.117 710.988 600.855 735.085L532.963 852.676Z" fill="#779DFF"/>
</svg>
