<svg width="25" height="21" viewBox="0 0 25 21" fill="none" xmlns="http://www.w3.org/2000/svg">
<path d="M6.24841 11.849C6.24841 12.298 6.08379 12.7285 5.79077 13.046C5.49774 13.3634 5.10031 13.5417 4.68591 13.5417C4.27151 13.5417 3.87408 13.3634 3.58106 13.046C3.28803 12.7285 3.12341 12.298 3.12341 11.849C3.12341 11.4001 3.28803 10.9696 3.58106 10.6521C3.87408 10.3347 4.27151 10.1563 4.68591 10.1563C5.10031 10.1563 5.49774 10.3347 5.79077 10.6521C6.08379 10.9696 6.24841 11.4001 6.24841 11.849ZM21.8734 11.849C21.8734 12.298 21.7088 12.7285 21.4158 13.046C21.1227 13.3634 20.7253 13.5417 20.3109 13.5417C19.8965 13.5417 19.4991 13.3634 19.2061 13.046C18.913 12.7285 18.7484 12.298 18.7484 11.849C18.7484 11.4001 18.913 10.9696 19.2061 10.6521C19.4991 10.3347 19.8965 10.1563 20.3109 10.1563C20.7253 10.1563 21.1227 10.3347 21.4158 10.6521C21.7088 10.9696 21.8734 11.4001 21.8734 11.849ZM9.37341 10.1563C8.95901 10.1563 8.56158 10.3347 8.26856 10.6521C7.97553 10.9696 7.81091 11.4001 7.81091 11.849C7.81091 12.298 7.97553 12.7285 8.26856 13.046C8.56158 13.3634 8.95901 13.5417 9.37341 13.5417H15.6234C16.0378 13.5417 16.4352 13.3634 16.7283 13.046C17.0213 12.7285 17.1859 12.298 17.1859 11.849C17.1859 11.4001 17.0213 10.9696 16.7283 10.6521C16.4352 10.3347 16.0378 10.1563 15.6234 10.1563H9.37341ZM7.59529 3.85269L6.10154 7.09253C6.04046 7.22905 6.01368 7.3806 6.02388 7.53191C6.03408 7.68322 6.08091 7.82894 6.15965 7.9544C6.23838 8.07986 6.34625 8.18063 6.47238 8.24655C6.59851 8.31247 6.73845 8.34122 6.8781 8.3299C8.29998 8.20633 10.55 8.04214 12.4984 8.04214C14.4469 8.04214 16.6984 8.20633 18.1187 8.3299C18.2584 8.34122 18.3983 8.31247 18.5244 8.24655C18.6506 8.18063 18.7584 8.07986 18.8372 7.9544C18.9159 7.82894 18.9627 7.68322 18.9729 7.53191C18.9831 7.3806 18.9564 7.22905 18.8953 7.09253L17.4015 3.85438C17.3368 3.71366 17.2372 3.59525 17.1138 3.51243C16.9905 3.42961 16.8482 3.38566 16.7031 3.3855H8.29373C8.14876 3.3855 8.00665 3.4292 7.88331 3.51171C7.75996 3.59422 7.66023 3.71228 7.59529 3.85269Z" fill="#808080"/>
<path d="M3.93594 2.56445C4.23735 1.80274 4.73859 1.15366 5.37745 0.697777C6.01631 0.241892 6.76468 -0.000735414 7.52969 1.67444e-06H17.4703C19.0328 1.67444e-06 20.4453 1.00886 21.0609 2.56445L22.2984 5.69258C22.4156 5.9888 22.6266 6.23255 22.8922 6.37643C23.6734 6.79961 24.2281 7.58672 24.4 8.51263L24.9234 11.3547C24.9755 11.6278 25.001 11.9043 25 12.1841V12.8832C25 14.2611 24.3906 15.4951 23.4375 16.2635V19.4661C23.4375 19.6906 23.3552 19.9059 23.2087 20.0646C23.0622 20.2233 22.8635 20.3125 22.6562 20.3125H19.5312C19.324 20.3125 19.1253 20.2233 18.9788 20.0646C18.8323 19.9059 18.75 19.6906 18.75 19.4661V17.2013C16.7312 17.2826 14.4609 17.3503 12.5 17.3503C10.5391 17.3503 8.26875 17.2826 6.25 17.2013V19.4661C6.25 19.6906 6.16769 19.9059 6.02118 20.0646C5.87466 20.2233 5.67595 20.3125 5.46875 20.3125H2.34375C2.13655 20.3125 1.93784 20.2233 1.79132 20.0646C1.64481 19.9059 1.5625 19.6906 1.5625 19.4661V16.2635C0.609375 15.4951 0 14.2611 0 12.8832V12.1841C0.000262235 11.9056 0.0259074 11.6278 0.0765625 11.3547L0.6 8.51094C0.771875 7.58672 1.32656 6.79792 2.10625 6.37643C2.37369 6.2328 2.58486 5.99022 2.70156 5.69258L3.93906 2.56445H3.93594ZM7.52969 1.69271C7.07078 1.69274 6.62197 1.83872 6.23894 2.11255C5.85591 2.38637 5.55551 2.77599 5.375 3.23307L4.1375 6.35951C3.87503 7.02484 3.40258 7.56726 2.80469 7.88971C2.63249 7.98218 2.48228 8.11642 2.36576 8.28199C2.24923 8.44757 2.16952 8.64003 2.13281 8.8444L1.60781 11.6865C1.5771 11.8503 1.5614 12.017 1.56094 12.1841V12.8832C1.56094 14.2306 2.52969 15.3342 3.76094 15.3952C6.19063 15.5137 9.67656 15.6576 12.4984 15.6576C15.3203 15.6576 18.8062 15.5154 21.2359 15.3952C21.8306 15.3638 22.3912 15.0852 22.801 14.6172C23.2108 14.1493 23.4383 13.5282 23.4359 12.8832V12.1841C23.4359 12.0171 23.4203 11.8512 23.3891 11.6865L22.8656 8.84271C22.8287 8.63864 22.7489 8.44652 22.6324 8.28125C22.5159 8.11599 22.3658 7.98201 22.1937 7.88971C21.5959 7.56726 21.1234 7.02484 20.8609 6.35951L19.6234 3.23138C19.4426 2.77435 19.1418 2.38491 18.7585 2.11138C18.3752 1.83784 17.9262 1.69227 17.4672 1.69271H7.52969Z" fill="#808080"/>
</svg>
