<svg width="17" height="17" viewBox="0 0 17 17" fill="none" xmlns="http://www.w3.org/2000/svg">
<path d="M7.4407 14.8852L7.44001 14.8845C5.37088 12.8395 3.69146 11.1765 2.52355 9.61919C1.36209 8.07046 0.748535 6.67953 0.748535 5.18675C0.748535 2.72784 2.49977 0.891113 4.64854 0.891113C5.87267 0.891113 7.06909 1.51514 7.85571 2.51407L8.24854 3.01292L8.64136 2.51407C9.42798 1.51514 10.6244 0.891113 11.8485 0.891113C13.9973 0.891113 15.7485 2.72784 15.7485 5.18675C15.7485 6.67953 15.135 8.07046 13.9735 9.61919C12.8056 11.1765 11.1262 12.8395 9.05706 14.8845L9.05637 14.8852L8.24854 15.6868L7.4407 14.8852Z" fill="white" stroke="heart"/>
</svg>
