<svg width="20" height="18" viewBox="0 0 20 18" fill="none" xmlns="http://www.w3.org/2000/svg">
<path d="M14.8475 12.2948L18.167 15.4376L17.0703 16.4761L13.7516 13.3326C12.5167 14.27 10.9808 14.7799 9.39815 14.7778C5.54772 14.7778 2.42273 11.8184 2.42273 8.17208C2.42273 4.52575 5.54772 1.56641 9.39815 1.56641C13.2486 1.56641 16.3736 4.52575 16.3736 8.17208C16.3758 9.67083 15.8374 11.1254 14.8475 12.2948ZM13.2928 11.7502C14.2764 10.7922 14.8257 9.50821 14.8235 8.17208C14.8235 5.33384 12.3953 3.03433 9.39815 3.03433C6.40104 3.03433 3.97282 5.33384 3.97282 8.17208C3.97282 11.0103 6.40104 13.3098 9.39815 13.3098C10.8091 13.3119 12.165 12.7917 13.1765 11.8602L13.2928 11.7502Z" fill="#888888"/>
</svg>
