<svg width="32" height="32" viewBox="0 0 32 32" fill="none" xmlns="http://www.w3.org/2000/svg">
<rect width="32" height="32" rx="8" fill="black"/>
<path d="M11.6601 6C10.7571 6 9.95257 6.58832 9.6933 7.45371L8.9564 9.91574C8.84507 10.2877 8.44178 10.4912 8.074 10.3667C7.72008 10.2469 7.33087 10.436 7.21283 10.7905C7.09526 11.1436 7.28601 11.5252 7.639 11.643L7.68506 11.6584C8.05406 11.7816 8.25937 12.1747 8.1496 12.5479L7.91874 13.3329C7.90234 13.3956 7.8952 13.4603 7.89754 13.5251V18.9979C7.89754 19.3741 8.20538 19.682 8.58164 19.682H9.91397C10.3435 19.682 10.7244 19.406 10.8583 18.9979C10.9922 18.5897 11.3731 18.3138 11.8027 18.3138H14.3309C14.5594 18.3138 14.7877 18.3313 15.0136 18.3661L21.3195 19.3375C21.4136 19.352 21.4917 19.4179 21.5217 19.5083C21.5562 19.612 21.6533 19.682 21.7626 19.682H23.653C23.8186 19.682 23.9793 19.6204 24.1025 19.5109L24.123 19.4897C24.1312 19.4815 24.1394 19.4761 24.1449 19.4678C24.2497 19.3494 24.3101 19.1983 24.3159 19.0403V18.9767C24.3186 18.9482 24.3186 18.9196 24.3159 18.8912L23.8352 15.5624C23.7842 15.2094 24.0579 14.8933 24.4146 14.8933C24.7379 14.8933 25 14.6312 25 14.3079V14.2092C25 13.8314 24.6937 13.5251 24.3159 13.5251H23.9996C23.6175 13.5251 23.2688 13.3075 23.1009 12.9643L22.481 11.6971C22.1213 10.9616 22.0513 10.1178 22.2851 9.33312L22.5201 8.54416C22.562 8.41031 22.5619 8.26685 22.5198 8.13305C22.4778 7.99926 22.3958 7.88156 22.2848 7.79576L20.9597 6.81202C20.8591 6.73969 20.741 6.69552 20.6177 6.6841L11.7025 6H11.6601ZM11.6601 7.3682L20.0138 8.00937C20.1986 8.02355 20.3756 8.09018 20.5239 8.20142C20.85 8.44606 20.9892 8.86785 20.8729 9.25856L20.5322 10.4035C20.4789 10.5736 20.4941 10.7577 20.5746 10.9166C20.9519 11.6872 20.2071 12.5285 19.3964 12.2473L17.4106 11.5583L17.4015 11.5537C17.3513 11.5284 17.2958 11.5152 17.2396 11.5152L13.2119 11.142C11.6028 10.9929 10.5331 9.40814 10.9965 7.86006C11.0854 7.5659 11.3557 7.3682 11.6601 7.3682ZM9.32944 13.4365C9.54082 12.7181 10.2311 12.2499 10.9767 12.319L17.0686 12.8841C17.0971 12.8841 17.1254 12.8889 17.1523 12.8984L21.3105 14.3637C21.9358 14.5841 22.3867 15.1339 22.4803 15.7902C22.649 16.9719 21.6289 17.9811 20.4491 17.7998L14.889 16.9456C14.8535 16.9429 14.8178 16.9429 14.7823 16.9456H14.4894C14.2543 16.9456 14.0965 16.7042 14.1908 16.4889C14.2497 16.3545 14.391 16.2761 14.5361 16.2971L17.2403 16.689L17.7005 16.7556C18.2192 16.8306 18.5885 16.2645 18.3107 15.8201C18.2145 15.6662 18.0553 15.5626 17.8757 15.5369L14.5531 15.0623C13.8568 14.9628 13.1813 15.3469 12.9108 15.9962C12.6712 16.5711 12.1095 16.9456 11.4867 16.9456H11.2154C10.1386 16.9456 9.26573 16.0727 9.26573 14.9959V13.8787C9.26573 13.729 9.28719 13.5801 9.32944 13.4365ZM10.976 12.841C10.7038 12.841 10.4428 12.9491 10.2504 13.1415C10.0579 13.334 9.94983 13.595 9.94983 13.8671C9.94983 14.1393 10.0579 14.4003 10.2504 14.5927C10.4428 14.7852 10.7038 14.8933 10.976 14.8933C11.2481 14.8933 11.5091 14.7852 11.7016 14.5927C11.894 14.4003 12.0021 14.1393 12.0021 13.8671C12.0021 13.595 11.894 13.334 11.7016 13.1415C11.5091 12.9491 11.2481 12.841 10.976 12.841ZM20.3567 15.0497C19.8514 14.8689 19.2587 15.183 19.4881 15.6682C19.6284 15.9649 19.8808 16.1937 20.1898 16.3042C20.4987 16.4148 20.839 16.3981 21.1357 16.2578C21.6209 16.0284 21.3621 15.4096 20.8568 15.2287L20.3567 15.0497Z" fill="white"/>
<path d="M7.088 22.336C7.088 22.1067 7.256 21.992 7.592 21.992C7.736 21.992 8.01067 21.9973 8.416 22.008C8.864 22.0293 9.20267 22.04 9.432 22.04C9.61867 22.04 9.84533 22.0293 10.112 22.008C10.2933 21.9973 10.408 21.992 10.456 21.992C10.7493 22.0027 10.9973 22.056 11.2 22.152C11.2587 22.1787 11.3067 22.2107 11.344 22.248C11.3813 22.2853 11.4 22.3467 11.4 22.432C11.4 22.5493 11.3627 22.6507 11.288 22.736C11.2133 22.816 11.1227 22.856 11.016 22.856C10.8987 22.856 10.728 22.84 10.504 22.808C10.3067 22.7707 10.1333 22.752 9.984 22.752C9.84 22.752 9.73067 22.7547 9.656 22.76C9.64 22.936 9.632 23.3573 9.632 24.024C9.632 24.8187 9.656 25.624 9.704 26.44L9.72 26.672C9.72 26.8907 9.59467 27 9.344 27C9.14667 27 9.01333 26.9547 8.944 26.864C8.87467 26.768 8.84 26.624 8.84 26.432C8.84 26.0533 8.82933 25.5813 8.808 25.016C8.78667 24.5467 8.776 24.2133 8.776 24.016C8.776 23.8827 8.792 23.4747 8.824 22.792L7.888 22.8C7.58933 22.8 7.38133 22.7733 7.264 22.72C7.14667 22.6613 7.088 22.5333 7.088 22.336ZM14.2873 24.432C14.33 24.5067 14.3646 24.616 14.3913 24.76C14.418 24.8987 14.4313 25.024 14.4313 25.136C14.4313 25.344 14.386 25.64 14.2953 26.024C13.9273 26.696 13.3833 27.032 12.6633 27.032C12.3966 27.032 12.1246 26.944 11.8473 26.768C11.57 26.592 11.378 26.3893 11.2713 26.16C11.1273 25.7013 11.0553 25.4107 11.0553 25.288C11.0553 25.0747 11.1006 24.848 11.1913 24.608C11.2873 24.368 11.4073 24.16 11.5513 23.984C11.642 23.8613 11.8046 23.7573 12.0393 23.672C12.274 23.5813 12.4873 23.536 12.6793 23.536C13.0526 23.536 13.37 23.608 13.6313 23.752C13.8926 23.8907 14.1113 24.1173 14.2873 24.432ZM13.5913 25.72C13.618 25.6507 13.6313 25.472 13.6313 25.184C13.6313 25.0293 13.602 24.8773 13.5433 24.728C13.49 24.5787 13.41 24.4507 13.3033 24.344C13.2926 24.3333 13.2633 24.3173 13.2153 24.296C13.1673 24.2693 13.1006 24.2453 13.0153 24.224C12.9353 24.1973 12.842 24.184 12.7353 24.184C12.4366 24.184 12.218 24.304 12.0793 24.544C11.9406 24.784 11.8713 25.056 11.8713 25.36C11.8713 25.4133 11.8846 25.5147 11.9113 25.664C11.9433 25.8133 11.97 25.9067 11.9913 25.944C12.0073 25.9813 12.0473 26.0347 12.1113 26.104C12.1806 26.168 12.2633 26.2267 12.3593 26.28C12.4606 26.328 12.5646 26.352 12.6713 26.352C12.9113 26.352 13.1033 26.296 13.2473 26.184C13.3913 26.0667 13.506 25.912 13.5913 25.72ZM18.0531 24.328C18.0531 24.5627 17.9331 24.68 17.6931 24.68C17.6131 24.68 17.5464 24.6613 17.4931 24.624C17.4397 24.5867 17.3811 24.5307 17.3171 24.456C17.1571 24.28 17.0184 24.192 16.9011 24.192C16.7464 24.192 16.5944 24.2373 16.4451 24.328C16.3011 24.4187 16.1837 24.5467 16.0931 24.712C16.0024 24.8773 15.9571 25.0613 15.9571 25.264C15.9571 25.488 15.9997 25.6747 16.0851 25.824C16.1757 25.9733 16.3144 26.1013 16.5011 26.208C16.5704 26.2453 16.6504 26.2747 16.7411 26.296C16.8371 26.3173 16.9197 26.328 16.9891 26.328C17.1437 26.328 17.3384 26.2667 17.5731 26.144C17.6584 26.1013 17.7304 26.0693 17.7891 26.048C17.8477 26.0267 17.9091 26.016 17.9731 26.016C18.0317 26.016 18.0984 26.0427 18.1731 26.096C18.2477 26.1493 18.2851 26.216 18.2851 26.296C18.2851 26.456 18.2104 26.592 18.0611 26.704C17.9117 26.8107 17.7277 26.8933 17.5091 26.952C17.2957 27.0053 17.0904 27.032 16.8931 27.032C16.5784 27.032 16.2851 26.96 16.0131 26.816C15.7464 26.672 15.5331 26.4747 15.3731 26.224C15.2131 25.968 15.1331 25.68 15.1331 25.36C15.1331 25.0187 15.2104 24.7067 15.3651 24.424C15.5197 24.1413 15.7277 23.92 15.9891 23.76C16.2504 23.6 16.5357 23.52 16.8451 23.52C17.0211 23.52 17.2024 23.552 17.3891 23.616C17.5757 23.68 17.7331 23.7733 17.8611 23.896C17.9891 24.0187 18.0531 24.1627 18.0531 24.328ZM22.0031 27.032C21.8217 27.032 21.6831 27.0053 21.5871 26.952C21.4911 26.8933 21.3871 26.7867 21.2751 26.632C21.1364 26.7547 20.9284 26.8533 20.6511 26.928C20.3791 27.0027 20.1444 27.04 19.9471 27.04C19.6217 27.04 19.3577 26.952 19.1551 26.776C18.9577 26.5947 18.8591 26.3307 18.8591 25.984C18.8591 25.8347 18.8991 25.6987 18.9791 25.576C19.0644 25.448 19.1737 25.336 19.3071 25.24C19.4564 25.1387 19.6324 25.0587 19.8351 25C20.0431 24.9413 20.2324 24.912 20.4031 24.912C20.6911 24.912 20.9471 24.9387 21.1711 24.992V24.984C21.1711 24.696 21.0991 24.4987 20.9551 24.392C20.8164 24.28 20.5924 24.224 20.2831 24.224C20.0857 24.224 19.9151 24.312 19.7711 24.488C19.7177 24.5573 19.6057 24.592 19.4351 24.592C19.3497 24.592 19.2857 24.5573 19.2431 24.488C19.2057 24.4133 19.1871 24.3387 19.1871 24.264C19.1871 24.1093 19.2511 23.976 19.3791 23.864C19.5124 23.752 19.6724 23.6693 19.8591 23.616C20.0457 23.5573 20.2191 23.528 20.3791 23.528C20.5337 23.528 20.7177 23.56 20.9311 23.624C21.1444 23.688 21.3177 23.7733 21.4511 23.88C21.6111 24.0187 21.7337 24.1813 21.8191 24.368C21.9097 24.5493 21.9551 24.7493 21.9551 24.968C21.9551 25.0373 21.9497 25.1413 21.9391 25.28C21.9284 25.44 21.9231 25.5707 21.9231 25.672C21.9231 25.72 21.9177 25.7813 21.9071 25.856C21.8964 25.952 21.8911 26.032 21.8911 26.096C21.8911 26.1653 21.9124 26.232 21.9551 26.296C21.9977 26.36 22.0564 26.4133 22.1311 26.456C22.2004 26.4933 22.2457 26.5333 22.2671 26.576C22.2884 26.6187 22.2991 26.6667 22.2991 26.72C22.2991 26.7733 22.2644 26.84 22.1951 26.92C22.1311 26.9947 22.0671 27.032 22.0031 27.032ZM20.4031 25.504C20.1951 25.504 20.0111 25.544 19.8511 25.624C19.6911 25.704 19.6111 25.8453 19.6111 26.048C19.6111 26.1493 19.6457 26.2347 19.7151 26.304C19.7897 26.3733 19.8697 26.408 19.9551 26.408C20.1844 26.408 20.3764 26.384 20.5311 26.336C20.6857 26.288 20.8724 26.2 21.0911 26.072C21.1177 25.9867 21.1337 25.8667 21.1391 25.712C21.1391 25.6533 21.1417 25.608 21.1471 25.576C20.8591 25.528 20.6111 25.504 20.4031 25.504ZM22.9326 24.192C22.7939 24.096 22.7246 23.9947 22.7246 23.888C22.7246 23.8133 22.7566 23.744 22.8206 23.68C22.8846 23.616 22.9806 23.584 23.1086 23.584C23.2579 23.584 23.3912 23.624 23.5086 23.704C23.6312 23.7787 23.7166 23.888 23.7646 24.032C23.8872 23.888 24.0259 23.7733 24.1806 23.688C24.3406 23.6027 24.5032 23.56 24.6686 23.56C24.8659 23.56 25.0446 23.6133 25.2046 23.72C25.3646 23.8267 25.4446 23.9707 25.4446 24.152C25.4446 24.2533 25.3992 24.3573 25.3086 24.464C25.2232 24.5707 25.1352 24.624 25.0446 24.624C24.9966 24.624 24.9539 24.6133 24.9166 24.592C24.8846 24.5653 24.8446 24.528 24.7966 24.48C24.7432 24.4267 24.6979 24.3893 24.6606 24.368C24.6232 24.3413 24.5806 24.328 24.5326 24.328C24.4472 24.328 24.3672 24.3413 24.2926 24.368C24.2179 24.3947 24.1672 24.4267 24.1406 24.464C24.0552 24.5973 23.9912 24.7173 23.9486 24.824C23.9112 24.9307 23.8926 25.0453 23.8926 25.168C23.8926 25.2587 23.8899 25.3307 23.8846 25.384L23.8766 25.84C23.8766 25.9093 23.8792 25.9867 23.8846 26.072C23.8899 26.1573 23.8952 26.2213 23.9006 26.264C23.9166 26.408 23.9246 26.5467 23.9246 26.68C23.9246 26.7707 23.8899 26.8507 23.8206 26.92C23.7512 26.9893 23.6659 27.024 23.5646 27.024C23.4046 27.024 23.2872 26.9947 23.2126 26.936C23.1379 26.872 23.1006 26.7573 23.1006 26.592L23.0926 26.08C23.0872 25.9787 23.0846 25.8347 23.0846 25.648L23.0926 25.12C23.1032 24.864 23.1086 24.656 23.1086 24.496C23.1086 24.4373 23.0952 24.384 23.0686 24.336C23.0472 24.288 23.0019 24.24 22.9326 24.192Z" fill="#F9F9F9"/>
</svg>
